<?xml version="1.0" encoding="UTF-8" standalone="no"?>
<svg xmlns="http://www.w3.org/2000/svg" version="1.1" viewBox="0.00 0.00 315.00 100.00">
  <g stroke-width="2.00" fill="none" stroke-linecap="butt">
    <path stroke="#0199fe" d="   M 42.28 44.92   L 38.57 47.16   Q 37.95 47.54 37.22 47.55   Q 36.56 47.57 36.07 48.00   Q 35.59 48.43 35.00 48.17   Q 34.09 47.76 33.59 48.44"></path>
    <path stroke="#0178fe" d="   M 46.77 52.65   Q 46.04 53.04 45.69 53.84   Q 45.49 54.29 45.12 54.61   Q 44.05 55.52 42.53 55.64   Q 41.93 55.68 41.57 56.17   L 40.99 56.95   A 0.64 0.63 -49.8 0 1 40.04 57.03   Q 39.25 56.29 38.41 56.65"></path>
    <path stroke="#0178fe" d="   M 59.62 56.96   Q 54.96 54.76 52.98 50.02"></path>
    <path stroke="#0199fe" d="   M 62.61 51.89   Q 61.41 51.41 60.82 50.51   Q 60.55 50.11 60.10 49.95   Q 58.40 49.35 57.53 47.80   Q 57.34 47.46 57.18 46.10   Q 57.06 45.08 56.21 44.46"></path>
    <path stroke="#0199fe" d="   M 89.34 43.36   L 88.89 42.51   Q 88.58 41.91 88.03 42.28   Q 87.88 42.38 87.71 42.45   Q 87.18 42.67 87.10 42.11   Q 86.68 39.43 84.31 38.89   Q 83.78 38.77 83.84 38.22   Q 83.98 36.98 82.90 36.09"></path>
    <path stroke="#0178fe" d="   M 80.23 58.92   Q 75.19 60.41 72.00 54.84"></path>
  </g>
  <path fill="#0066fe" d="   M 28.89 92.91   C -4.14 76.94 -8.92 31.36 20.95 9.63   C 40.44 -4.54 66.15 -2.66 83.88 13.95   A 0.29 0.28 -45.7 0 1 83.88 14.36   L 81.13 16.99   Q 80.85 17.26 80.57 16.99   Q 73.46 10.08 65.54 7.34   Q 41.41 -0.97 21.92 14.42   C 1.19 30.78 -0.26 62.01 18.95 80.81   C 33.71 95.24 55.63 97.09 73.29 86.64   A 0.43 0.43 0.0 0 1 73.86 86.77   L 75.95 89.77   A 0.27 0.26 57.8 0 1 75.87 90.14   C 61.58 98.91 43.94 100.19 28.89 92.91   Z"></path>
  <path fill="#ffffff" d="   M 53.12 87.92   C 23.81 90.06 2.73 59.78 14.66 33.03   C 20.47 20.02 32.97 10.98 47.20 9.86   Q 64.34 8.51 77.84 20.74   Q 77.91 20.80 77.86 20.87   Q 76.97 22.22 75.83 22.75   Q 75.74 22.79 75.66 22.73   C 61.42 9.36 39.87 9.12 25.63 22.47   C 5.71 41.16 12.93 74.60 38.94 83.30   C 54.71 88.57 71.10 82.70 80.67 69.13   Q 80.80 68.94 80.99 69.08   L 82.90 70.57   Q 83.10 70.73 82.95 70.94   Q 71.53 86.58 53.12 87.92   Z"></path>
  <path fill="#00a8fe" d="   M 42.28 44.92   L 38.57 47.16   Q 37.95 47.54 37.22 47.55   Q 36.56 47.57 36.07 48.00   Q 35.59 48.43 35.00 48.17   Q 34.09 47.76 33.59 48.44   L 24.40 32.76   Q 22.11 28.87 26.61 29.26   Q 27.85 29.37 29.09 29.48   A 8.73 8.73 0.0 0 1 35.89 33.82   L 42.28 44.92   Z"></path>
  <path fill="#00a8fe" d="   M 89.34 43.36   L 88.89 42.51   Q 88.58 41.91 88.03 42.28   Q 87.88 42.38 87.71 42.45   Q 87.18 42.67 87.10 42.11   Q 86.68 39.43 84.31 38.89   Q 83.78 38.77 83.84 38.22   Q 83.98 36.98 82.90 36.09   Q 87.28 26.85 96.47 29.88   A 0.51 0.51 0.0 0 1 96.75 30.62   L 89.34 43.36   Z"></path>
  <path fill="#ffffff" d="   M 124.28 50.52   Q 124.66 52.18 125.04 50.52   Q 126.84 42.51 128.43 34.90   Q 128.86 32.85 126.87 32.50   Q 126.37 32.41 126.16 31.93   Q 125.88 31.29 126.00 30.58   Q 126.10 30.00 126.69 30.00   L 134.05 30.00   Q 134.53 30.00 134.68 30.45   Q 134.88 31.03 134.76 31.66   A 1.17 1.15 84.3 0 1 134.09 32.50   Q 132.66 33.14 132.29 34.69   Q 128.64 50.12 125.05 65.59   Q 124.58 67.59 122.63 66.97   Q 122.12 66.81 121.99 66.28   L 117.20 45.51   Q 116.89 44.17 116.59 45.52   L 111.88 66.34   Q 111.73 66.98 111.07 66.99   L 110.00 67.00   A 1.02 1.02 0.0 0 1 109.00 66.23   Q 104.99 50.19 101.21 34.26   C 100.78 32.43 99.29 32.90 98.63 31.57   Q 98.37 31.03 98.66 30.48   Q 98.92 30.00 99.46 30.00   L 108.56 30.00   Q 109.16 30.00 109.26 30.59   Q 109.52 32.08 108.10 32.67   A 1.12 1.11 72.2 0 0 107.44 33.96   L 111.24 50.29   Q 111.71 52.30 112.13 50.29   Q 113.39 44.33 114.69 38.52   C 115.00 37.12 114.59 35.87 114.34 34.51   C 113.95 32.43 111.39 32.97 111.90 30.49   A 0.61 0.61 0.0 0 1 112.50 30.00   L 122.19 30.00   Q 122.48 30.00 122.54 30.29   Q 123.03 32.49 121.35 32.76   A 1.02 1.02 0.0 0 0 120.51 34.00   L 124.28 50.52   Z"></path>
  <path fill="#ffffff" d="   M 145.12 63.04   Q 145.12 63.74 145.76 64.06   C 146.60 64.47 147.29 65.44 147.05 66.42   Q 146.91 67.00 146.31 67.00   L 138.05 67.00   Q 134.66 67.00 136.88 64.44   L 137.64 63.57   Q 138.00 63.15 138.00 62.60   L 138.00 34.26   Q 138.00 33.70 137.63 33.27   Q 137.19 32.75 136.57 32.44   Q 136.09 32.21 136.05 31.67   L 135.97 30.67   Q 135.91 30.00 136.58 30.00   L 146.30 30.00   A 0.83 0.83 0.0 0 1 147.12 30.94   Q 146.93 32.33 145.65 33.07   Q 145.12 33.37 145.12 33.98   Q 145.14 48.47 145.12 63.04   Z"></path>
  <path fill="#ffffff" d="   M 163.60 31.41   Q 164.71 30.82 166.07 31.00   Q 166.73 31.09 166.73 31.75   L 166.73 39.25   Q 166.73 39.98 166.00 39.99   L 164.51 40.00   Q 163.87 40.01 163.73 39.38   Q 163.37 37.73 162.69 36.14   C 159.72 29.13 151.28 34.95 156.34 40.37   C 160.08 44.38 165.15 47.05 167.95 51.80   C 171.63 58.04 168.17 65.05 161.21 66.75   Q 158.01 67.54 154.03 66.08   Q 153.46 65.87 153.02 66.28   Q 151.86 67.36 150.12 66.93   Q 149.75 66.84 149.75 66.45   L 149.76 56.71   Q 149.76 55.93 150.54 55.98   L 152.30 56.07   A 0.59 0.59 0.0 0 1 152.85 56.61   C 153.14 60.70 155.48 64.77 160.13 63.92   C 161.78 63.61 163.32 62.28 163.75 60.64   Q 164.77 56.73 161.49 53.67   Q 157.96 50.36 154.01 47.23   C 149.53 43.68 147.34 36.78 152.14 32.45   Q 156.89 28.18 162.36 31.39   Q 162.97 31.75 163.60 31.41   Z"></path>
  <path fill="#ffffff" d="   M 181.13 33.58   L 181.11 45.43   Q 181.11 45.99 181.68 46.00   L 183.38 46.01   Q 184.10 46.01 184.48 45.40   Q 185.30 44.08 185.64 42.53   Q 185.75 42.01 186.29 42.01   L 188.02 42.00   Q 188.53 42.00 188.53 42.52   L 188.53 52.70   Q 188.52 52.85 188.38 52.87   Q 187.04 53.16 185.77 52.87   A 0.32 0.31 2.8 0 1 185.53 52.61   Q 185.11 48.47 181.58 48.99   Q 181.12 49.06 181.12 49.52   L 181.12 63.49   Q 181.12 64.05 181.68 64.03   C 182.97 64.00 184.35 63.92 185.64 64.02   C 189.03 64.28 189.91 61.01 190.78 58.55   Q 190.97 58.01 191.55 58.00   L 193.01 58.00   Q 193.77 58.00 193.78 58.76   L 193.80 66.47   A 0.53 0.53 0.0 0 1 193.27 67.00   L 172.91 67.00   A 1.04 1.04 0.0 0 1 172.15 65.26   L 173.61 63.67   A 1.47 1.42 -24.3 0 0 174.00 62.69   Q 174.02 48.98 173.98 35.60   Q 173.98 33.48 172.51 31.97   Q 172.28 31.73 172.17 31.41   Q 172.06 31.12 172.10 30.82   A 0.92 0.91 -86.8 0 1 173.01 30.00   L 191.77 30.01   Q 192.53 30.01 192.53 30.77   L 192.53 37.24   Q 192.52 38.00 191.76 38.00   L 190.31 37.99   Q 189.75 37.99 189.68 37.44   C 189.43 35.18 188.12 32.80 185.51 32.95   Q 183.53 33.07 181.81 32.95   Q 181.14 32.90 181.13 33.58   Z"></path>
  <path fill="#ffffff" d="   M 204.75 64.04   C 207.59 63.84 209.93 64.45 211.43 61.44   Q 212.03 60.25 212.29 58.81   Q 212.40 58.23 212.97 58.08   Q 213.79 57.86 214.65 57.96   Q 215.37 58.04 215.37 58.76   L 215.38 66.31   Q 215.38 67.00 214.69 67.00   L 195.70 67.00   A 1.07 1.07 0.0 0 1 194.95 65.17   L 196.63 63.54   A 1.26 1.23 -22.7 0 0 197.01 62.65   Q 197.01 49.69 197.00 35.52   Q 197.00 33.65 195.68 32.36   Q 194.96 31.65 195.04 30.69   A 0.74 0.73 2.1 0 1 195.78 30.01   L 205.03 30.00   A 1.09 1.08 21.4 0 1 205.83 31.82   L 204.52 33.23   Q 204.13 33.65 204.13 34.22   L 204.12 63.46   Q 204.12 64.09 204.75 64.04   Z"></path>
  <path fill="#ffffff" d="   M 227.64 66.68   Q 221.45 65.12 219.42 58.87   C 216.77 50.71 216.36 30.62 229.50 30.03   C 237.87 29.65 241.71 36.49 242.38 43.89   C 243.11 51.92 242.63 62.88 234.44 66.29   Q 231.28 67.60 227.64 66.68   Z   M 234.23 56.70   C 234.95 50.10 235.48 42.35 233.68 35.77   C 232.85 32.76 229.18 31.73 227.46 34.63   Q 226.85 35.65 226.67 36.84   Q 225.03 47.99 225.95 57.92   Q 226.20 60.57 227.52 62.64   C 228.62 64.36 231.15 64.58 232.41 62.98   C 233.91 61.10 233.97 59.10 234.23 56.70   Z"></path>
  <path fill="#ffffff" d="   M 267.95 29.85   A 0.40 0.40 0.0 0 1 268.47 30.23   L 268.46 39.39   Q 268.46 40.00 267.86 40.00   L 266.24 40.00   Q 265.61 40.00 265.47 39.38   C 264.75 36.02 262.93 32.29 258.83 33.11   Q 256.18 33.64 255.67 36.49   Q 253.36 49.39 255.68 59.77   Q 256.09 61.59 257.30 62.92   C 258.82 64.59 262.75 64.55 262.73 61.60   Q 262.72 59.01 262.78 56.15   Q 262.83 53.70 260.54 53.14   Q 259.79 52.95 259.70 52.18   Q 259.65 51.79 259.83 51.46   Q 260.08 51.00 260.61 51.00   L 268.80 51.00   Q 269.35 51.00 269.34 51.55   L 269.21 61.88   Q 269.21 62.40 269.58 62.75   Q 270.25 63.41 270.12 64.34   Q 270.05 64.87 269.55 65.08   Q 261.12 68.65 254.29 65.72   Q 249.64 63.72 247.98 58.24   C 245.33 49.47 246.62 33.27 257.89 30.21   Q 259.81 29.69 261.75 30.19   Q 264.60 30.91 267.95 29.85   Z"></path>
  <path fill="#ffffff" d="   M 281.11 62.77   Q 281.11 63.77 281.96 64.21   C 282.78 64.64 283.24 65.53 283.11 66.45   A 0.65 0.64 4.1 0 1 282.47 67.00   L 272.70 67.00   Q 272.04 67.00 272.00 66.34   C 271.90 64.68 272.91 64.68 273.69 63.66   Q 274.00 63.24 274.00 62.72   Q 273.99 49.29 274.01 34.49   C 274.01 33.65 273.52 32.97 272.80 32.57   Q 272.38 32.34 272.20 31.90   Q 271.94 31.24 271.98 30.54   A 0.56 0.56 0.0 0 1 272.54 30.00   L 282.47 30.00   Q 283.04 30.00 283.07 30.57   Q 283.18 32.17 281.70 33.01   Q 281.12 33.35 281.12 34.02   Q 281.14 48.59 281.11 62.77   Z"></path>
  <path fill="#ffffff" d="   M 298.54 41.26   L 302.23 34.22   A 0.92 0.92 0.0 0 0 301.77 32.95   Q 300.26 32.31 300.48 30.63   Q 300.56 30.00 301.20 30.00   L 308.89 30.00   Q 309.52 30.00 309.50 30.64   L 309.45 31.69   Q 309.42 32.24 308.89 32.38   Q 306.95 32.91 306.40 33.94   Q 303.31 39.74 300.32 45.62   A 0.82 0.79 -44.2 0 0 300.30 46.34   Q 304.25 54.79 307.73 62.29   C 308.25 63.40 309.11 64.00 310.09 64.67   Q 311.14 65.39 310.62 66.55   Q 310.43 67.00 309.94 67.00   L 300.06 67.00   Q 299.30 67.00 299.26 66.24   Q 299.18 64.78 300.48 64.14   A 1.11 1.10 -25.6 0 0 301.00 62.68   L 296.82 53.69   A 0.36 0.36 0.0 0 0 296.17 53.68   L 291.45 62.68   A 0.76 0.75 33.2 0 0 291.65 63.62   C 292.48 64.28 293.57 64.29 293.87 65.46   Q 294.02 66.02 293.78 66.51   Q 293.54 67.00 293.00 67.00   L 285.50 67.00   Q 284.89 67.00 284.74 66.41   Q 284.41 65.05 285.78 64.30   Q 286.94 63.67 287.56 62.46   Q 290.89 55.96 294.37 49.37   Q 294.63 48.85 294.38 48.34   Q 290.85 41.17 287.50 34.01   Q 286.99 32.92 286.01 32.49   Q 285.63 32.32 285.53 31.93   Q 285.35 31.24 285.44 30.55   Q 285.51 30.00 286.06 30.00   L 295.28 30.00   Q 295.93 30.00 296.02 30.65   Q 296.23 32.28 294.72 33.04   Q 294.23 33.29 294.46 33.78   L 297.92 41.25   A 0.35 0.35 0.0 0 0 298.54 41.26   Z"></path>
  <path fill="#00a8fe" d="   M 62.61 51.89   Q 61.41 51.41 60.82 50.51   Q 60.55 50.11 60.10 49.95   Q 58.40 49.35 57.53 47.80   Q 57.34 47.46 57.18 46.10   Q 57.06 45.08 56.21 44.46   L 59.70 38.91   A 6.34 6.33 -74.8 0 1 64.88 35.94   Q 66.85 35.88 68.82 35.83   Q 72.12 35.74 70.44 38.58   L 62.61 51.89   Z"></path>
  <path fill="#018afd" d="   M 82.90 36.09   Q 83.98 36.98 83.84 38.22   Q 83.78 38.77 84.31 38.89   Q 86.68 39.43 87.10 42.11   Q 87.18 42.67 87.71 42.45   Q 87.88 42.38 88.03 42.28   Q 88.58 41.91 88.89 42.51   L 89.34 43.36   L 80.23 58.92   Q 75.19 60.41 72.00 54.84   L 82.90 36.09   Z"></path>
  <path fill="#018afd" d="   M 56.21 44.46   Q 57.06 45.08 57.18 46.10   Q 57.34 47.46 57.53 47.80   Q 58.40 49.35 60.10 49.95   Q 60.55 50.11 60.82 50.51   Q 61.41 51.41 62.61 51.89   L 59.62 56.96   Q 54.96 54.76 52.98 50.02   L 56.21 44.46   Z"></path>
  <path fill="#018afd" d="   M 42.28 44.92   L 46.77 52.65   Q 46.04 53.04 45.69 53.84   Q 45.49 54.29 45.12 54.61   Q 44.05 55.52 42.53 55.64   Q 41.93 55.68 41.57 56.17   L 40.99 56.95   A 0.64 0.63 -49.8 0 1 40.04 57.03   Q 39.25 56.29 38.41 56.65   L 33.59 48.44   Q 34.09 47.76 35.00 48.17   Q 35.59 48.43 36.07 48.00   Q 36.56 47.57 37.22 47.55   Q 37.95 47.54 38.57 47.16   L 42.28 44.92   Z"></path>
  <path fill="#0066fe" d="   M 52.98 50.02   Q 54.96 54.76 59.62 56.96   C 57.25 61.21 54.80 65.92 49.25 65.76   C 42.92 65.57 41.11 61.35 38.41 56.65   Q 39.25 56.29 40.04 57.03   A 0.64 0.63 -49.8 0 0 40.99 56.95   L 41.57 56.17   Q 41.93 55.68 42.53 55.64   Q 44.05 55.52 45.12 54.61   Q 45.49 54.29 45.69 53.84   Q 46.04 53.04 46.77 52.65   L 48.59 55.92   A 0.59 0.59 0.0 0 0 49.62 55.93   L 52.98 50.02   Z"></path>
  <path fill="#0066fe" d="   M 72.00 54.84   Q 75.19 60.41 80.23 58.92   C 77.88 64.60 72.36 67.35 66.71 64.76   A 0.45 0.44 -62.9 0 1 66.51 64.13   L 72.00 54.84   Z"></path>
  <path fill="#ffffff" d="   M 131.51 77.01   L 128.21 76.99   Q 127.00 76.98 126.75 75.81   Q 126.64 75.26 126.91 74.70   A 1.21 1.21 0.0 0 1 128.00 74.01   L 139.87 74.00   Q 141.24 74.00 141.25 75.37   L 141.25 75.74   Q 141.25 76.99 140.01 76.99   L 136.24 77.00   Q 135.73 77.00 135.73 77.51   L 135.73 89.36   Q 135.73 90.70 134.43 91.02   Q 134.22 91.07 134.01 91.05   Q 132.27 90.95 132.27 89.21   L 132.26 77.76   Q 132.26 77.01 131.51 77.01   Z"></path>
  <path fill="#ffffff" d="   M 173.98 80.05   Q 174.44 79.55 175.23 79.31   C 178.71 78.25 181.72 79.77 181.54 83.60   Q 181.39 86.78 181.44 89.32   Q 181.47 90.83 179.97 90.98   Q 179.79 91.00 179.61 91.00   Q 178.33 90.99 178.31 89.71   L 178.24 83.13   Q 178.22 81.26 176.38 80.96   Q 175.04 80.74 173.78 82.46   A 2.74 2.74 0.0 0 0 173.25 84.05   L 173.25 89.37   Q 173.25 90.73 171.92 91.02   Q 171.33 91.15 170.67 90.68   A 1.16 1.13 -72.7 0 1 170.19 89.74   L 170.20 75.56   Q 170.20 74.21 171.53 73.98   Q 171.77 73.94 172.01 74.01   Q 173.26 74.37 173.25 75.67   L 173.25 79.76   Q 173.24 80.85 173.98 80.05   Z"></path>
  <rect fill="#ffffff" x="214.21" y="74.01" width="3.16" height="16.98" rx="1.54"></rect>
  <circle fill="#ffffff" cx="252.22" cy="75.51" r="1.54"></circle>
  <path fill="#ffffff" d="   M 144.34 86.64   Q 145.05 89.13 147.77 89.07   C 149.40 89.03 150.35 87.76 151.74 87.07   A 0.76 0.76 0.0 0 1 152.74 87.40   Q 153.25 88.35 152.50 89.12   Q 150.76 90.91 147.94 91.03   C 143.42 91.20 140.30 88.13 141.28 83.47   C 142.56 77.37 152.54 77.56 153.18 83.62   Q 153.44 86.09 150.89 86.03   Q 147.73 85.96 144.81 86.01   Q 144.16 86.02 144.34 86.64   Z   M 144.58 83.99   L 149.94 83.99   A 0.18 0.18 0.0 0 0 150.12 83.81   L 150.12 83.74   A 2.77 2.75 -89.9 0 0 147.37 80.97   L 147.15 80.97   A 2.77 2.75 -89.9 0 0 144.40 83.74   L 144.40 83.81   A 0.18 0.18 0.0 0 0 144.58 83.99   Z"></path>
  <path fill="#ffffff" d="   M 160.39 88.62   A 2.71 2.71 0.0 0 0 164.06 88.16   L 165.53 86.39   Q 165.89 85.96 166.43 86.07   Q 167.68 86.33 167.50 87.92   A 1.99 1.96 74.3 0 1 166.76 89.26   Q 163.64 91.74 159.81 90.79   C 153.76 89.28 154.18 80.60 160.22 79.18   Q 164.22 78.24 167.10 81.27   A 1.23 1.23 0.0 0 1 167.11 82.96   Q 166.78 83.32 166.35 83.54   Q 165.79 83.84 165.36 83.36   C 164.58 82.48 163.66 81.12 162.39 80.99   C 158.18 80.56 157.66 86.63 160.39 88.62   Z"></path>
  <path fill="#ffffff" d="   M 187.93 80.26   C 189.01 79.65 190.17 78.97 191.46 78.97   Q 195.70 78.96 195.91 82.60   Q 196.08 85.60 195.98 88.86   Q 195.94 90.35 194.59 90.97   Q 193.66 91.40 192.88 89.41   A 1.79 1.72 35.1 0 1 192.75 88.75   L 192.74 83.15   Q 192.74 81.15 190.74 80.96   Q 189.85 80.88 188.93 81.40   A 2.36 2.33 75.5 0 0 187.74 83.45   L 187.74 89.27   Q 187.74 90.59 186.48 91.00   Q 185.81 91.21 185.08 90.61   A 1.27 1.23 20.4 0 1 184.62 89.65   L 184.62 80.38   A 1.44 1.43 6.8 0 1 186.40 78.99   Q 187.31 79.21 187.25 79.82   Q 187.17 80.68 187.93 80.26   Z"></path>
  <path fill="#ffffff" d="   M 211.1600 84.9888   A 6.41 6.08 -0.1 0 1 204.7606 91.0800   A 6.41 6.08 -0.1 0 1 198.3400 85.0112   A 6.41 6.08 -0.1 0 1 204.7394 78.9200   A 6.41 6.08 -0.1 0 1 211.1600 84.9888   Z   M 204.7859 89.0998   A 4.11 3.22 89.5 0 0 207.9699 84.9619   A 4.11 3.22 89.5 0 0 204.7141 80.8802   A 4.11 3.22 89.5 0 0 201.5301 85.0181   A 4.11 3.22 89.5 0 0 204.7859 89.0998   Z"></path>
  <path fill="#ffffff" d="   M 232.6599 85.0336   A 6.41 6.09 0.3 0 1 226.2181 91.0899   A 6.41 6.09 0.3 0 1 219.8401 84.9664   A 6.41 6.09 0.3 0 1 226.2819 78.9101   A 6.41 6.09 0.3 0 1 232.6599 85.0336   Z   M 226.2916 89.1199   A 4.12 3.23 89.7 0 0 229.5000 84.9831   A 4.12 3.23 89.7 0 0 226.2484 80.8801   A 4.12 3.23 89.7 0 0 223.0400 85.0169   A 4.12 3.23 89.7 0 0 226.2916 89.1199   Z"></path>
  <path fill="#ffffff" d="   M 243.42 89.71   C 235.27 94.99 231.16 82.64 237.43 79.53   Q 240.29 78.11 243.12 80.15   Q 243.60 80.50 243.94 80.01   L 244.33 79.45   A 1.12 1.10 10.0 0 1 244.99 79.00   Q 245.84 78.82 246.41 79.35   Q 246.78 79.69 246.78 80.18   Q 246.84 85.80 246.77 91.10   C 246.70 96.77 239.80 96.90 236.22 94.70   C 235.15 94.05 234.41 92.52 235.29 91.40   A 1.07 1.07 0.0 0 1 237.06 91.52   C 237.67 92.58 238.38 93.82 239.71 94.02   Q 241.66 94.32 242.98 93.26   Q 243.47 92.86 243.54 92.24   L 243.82 89.96   Q 243.89 89.40 243.42 89.71   Z   M 240.7459 89.1198   A 4.11 3.15 89.5 0 0 243.8599 84.9825   A 4.11 3.15 89.5 0 0 240.6741 80.9002   A 4.11 3.15 89.5 0 0 237.5601 85.0375   A 4.11 3.15 89.5 0 0 240.7459 89.1198   Z"></path>
  <rect fill="#ffffff" x="-1.58" y="-5.99" transform="translate(252.22,85.00) rotate(-0.1)" width="3.16" height="11.98" rx="1.53"></rect>
  <path fill="#ffffff" d="   M 259.83 86.67   C 261.23 90.34 264.82 89.17 266.98 87.13   A 0.83 0.83 0.0 0 1 268.36 87.54   Q 268.53 88.26 268.09 89.06   A 1.67 1.66 87.5 0 1 267.58 89.62   Q 264.72 91.62 261.20 90.82   C 255.31 89.49 254.85 81.24 260.48 79.36   C 263.82 78.24 268.38 79.76 268.68 83.79   Q 268.85 86.13 266.43 86.04   Q 263.26 85.91 260.25 86.03   Q 259.60 86.06 259.83 86.67   Z   M 260.09 83.99   L 265.41 83.99   A 0.18 0.18 0.0 0 0 265.59 83.81   L 265.59 83.72   A 2.75 2.74 89.9 0 0 262.85 80.97   L 262.65 80.97   A 2.75 2.74 89.9 0 0 259.91 83.72   L 259.91 83.81   A 0.18 0.18 0.0 0 0 260.09 83.99   Z"></path>
  <path fill="#ffffff" d="   M 278.13 86.57   Q 276.04 85.87 273.73 85.26   Q 271.67 84.72 271.22 82.89   A 2.61 2.60 66.6 0 1 272.33 80.07   Q 276.27 77.54 280.78 80.54   A 1.27 1.25 -65.4 0 1 281.30 81.96   Q 280.87 83.43 279.51 82.97   A 1.89 1.86 -7.4 0 1 278.61 82.29   Q 277.87 81.26 276.63 81.00   Q 275.43 80.75 274.50 81.43   Q 274.33 81.56 274.27 81.75   Q 273.89 82.97 275.14 83.26   Q 277.54 83.80 279.83 84.58   Q 281.86 85.28 281.87 87.25   C 281.88 90.88 276.93 91.51 274.33 90.80   Q 273.35 90.54 272.57 89.89   Q 270.39 88.10 271.32 87.10   Q 272.26 86.07 273.22 87.08   L 274.26 88.18   A 2.92 2.91 70.7 0 0 276.15 89.09   Q 278.79 89.30 278.73 87.38   A 0.89 0.89 0.0 0 0 278.13 86.57   Z"></path>
</svg>
